<?xml version="1.0" standalone="no"?><!-- Generator: Gravit.io --><svg xmlns="http://www.w3.org/2000/svg" xmlns:xlink="http://www.w3.org/1999/xlink" style="isolation:isolate" viewBox="0 0 3200 3200" width="3200" height="3200"><defs><clipPath id="_clipPath_dMluF5UMOZNmqrEpyYInBTxK1GQEd9ze"><rect width="3200" height="3200"/></clipPath></defs><g clip-path="url(#_clipPath_dMluF5UMOZNmqrEpyYInBTxK1GQEd9ze)"><g><polygon points="2913.876,2358.566,1600,3117.133,286.124,2358.566,286.124,841.434,1600,82.867,2913.876,841.434" fill="rgb(235,235,235)"/><g><g><rect x="2481.343" y="958.857" width="176.432" height="1400.958" transform="matrix(1,0,0,1,0,0)" fill="rgb(213,20,20)"/><path d=" M 2227.228 1615.547 L 2025.097 1615.547 L 2292.061 1153.152 L 2559.025 690.757 L 2660.09 865.807 L 2494.192 1153.152 L 2227.228 1615.547 Z " fill="rgb(236,26,26)"/><path d=" M 2661.137 865.807 L 2459.007 865.807 L 2725.971 1328.202 L 2992.935 1790.597 L 3094 1615.547 L 2928.101 1328.202 L 2661.137 865.807 Z " fill="rgb(236,26,26)"/><path d=" M 2022.781 1615.803 L 2123.847 1440.753 L 2390.811 1903.148 L 2657.774 2365.543 L 2455.644 2365.543 L 2123.847 2365.543 L 1589.919 2365.543 L 1589.919 2365.543 L 1921.716 2365.543 L 2455.644 2365.543 L 2188.68 1903.148 L 2022.781 1615.803 Z " fill="rgb(236,26,26)"/></g><g><rect x="1354.92" y="958.857" width="176.432" height="1400.958" transform="matrix(1,0,0,1,0,0)" fill="rgb(213,20,20)"/><path d=" M 1989.913 1615.803 L 1888.847 1440.753 L 1621.883 1903.148 L 1354.92 2365.543 L 1557.05 2365.543 L 1888.847 2365.543 L 2090.978 2365.543 L 2422.775 2365.543 L 2422.775 2365.543 L 2090.978 2365.543 L 1557.05 2365.543 L 1557.05 2365.543 L 1824.014 1903.148 L 1989.913 1615.803 Z " fill="rgb(236,26,26)"/><path d=" M 1492.217 378.638 L 1290.086 378.638 L 1557.05 841.033 L 1824.014 1303.428 L 1925.079 1128.378 L 2090.978 841.033 L 2192.043 665.983 L 2357.942 378.638 L 2357.942 378.638 L 2192.043 665.983 L 1925.079 1128.378 L 1925.079 1128.378 L 1658.115 665.983 L 1492.217 378.638 Z " fill="rgb(236,26,26)"/></g><g><path d=" M 740.993 1615.803 L 639.928 1440.753 L 372.964 1903.148 L 106 2365.543 L 308.13 2365.543 L 639.928 2365.543 L 1173.856 2365.543 L 1173.856 2365.543 L 842.058 2365.543 L 308.13 2365.543 L 575.094 1903.148 L 740.993 1615.803 Z " fill="rgb(236,26,26)"/><rect x="639.928" y="958.857" width="176.432" height="1400.958" transform="matrix(1,0,0,1,0,0)" fill="rgb(213,20,20)"/><rect x="997.424" y="958.857" width="176.432" height="1400.958" transform="matrix(1,0,0,1,0,0)" fill="rgb(213,20,20)"/></g></g></g></g></svg>